<svg width="48" height="48" viewBox="0 0 48 48" fill="none" xmlns="http://www.w3.org/2000/svg">
<path d="M15.9969 4.79999C9.82246 4.79999 4.79999 9.82711 4.79999 16.0031V32.0031C4.79999 38.1775 9.82711 43.2 16.0031 43.2H32.0031C38.1775 43.2 43.2 38.1729 43.2 31.9969V15.9969C43.2 9.82246 38.1729 4.79999 31.9969 4.79999H15.9969ZM35.2 11.2C36.0832 11.2 36.8 11.9168 36.8 12.8C36.8 13.6832 36.0832 14.4 35.2 14.4C34.3168 14.4 33.6 13.6832 33.6 12.8C33.6 11.9168 34.3168 11.2 35.2 11.2ZM24 14.4C29.2944 14.4 33.6 18.7056 33.6 24C33.6 29.2944 29.2944 33.6 24 33.6C18.7056 33.6 14.4 29.2944 14.4 24C14.4 18.7056 18.7056 14.4 24 14.4ZM24 17.6C22.3026 17.6 20.6747 18.2743 19.4745 19.4745C18.2743 20.6747 17.6 22.3026 17.6 24C17.6 25.6974 18.2743 27.3252 19.4745 28.5255C20.6747 29.7257 22.3026 30.4 24 30.4C25.6974 30.4 27.3252 29.7257 28.5255 28.5255C29.7257 27.3252 30.4 25.6974 30.4 24C30.4 22.3026 29.7257 20.6747 28.5255 19.4745C27.3252 18.2743 25.6974 17.6 24 17.6Z" fill="#FF0000"/>
</svg>
