<svg width="48" height="48" viewBox="0 0 48 48" fill="none" xmlns="http://www.w3.org/2000/svg">
<path d="M44.8 11.0992C43.2688 11.7792 41.624 12.2368 39.8976 12.4432C41.6608 11.3872 43.0128 9.7152 43.6496 7.7216C42.0016 8.6992 40.1744 9.4096 38.2288 9.7936C36.672 8.1344 34.4544 7.0976 32 7.0976C27.2864 7.0976 23.4656 10.92 23.4656 15.632C23.4656 16.3008 23.5424 16.9536 23.6864 17.576C16.5936 17.2208 10.3056 13.8224 6.0944 8.6576C5.3616 9.9184 4.9408 11.384 4.9408 12.9504C4.9408 15.9104 6.4464 18.5232 8.736 20.0528C7.3376 20.008 6.0208 19.624 4.8704 18.9856C4.8704 19.0224 4.8704 19.056 4.8704 19.0928C4.8704 23.2288 7.8112 26.6784 11.7168 27.4608C11.0016 27.656 10.2464 27.76 9.4672 27.76C8.9184 27.76 8.3824 27.7056 7.8624 27.608C8.9488 30.9984 12.1008 33.4672 15.8352 33.536C12.9152 35.8256 9.2352 37.1904 5.2352 37.1904C4.5472 37.1904 3.8672 37.1504 3.19839 37.0704C6.976 39.4912 11.4608 40.904 16.2816 40.904C31.9808 40.904 40.5632 27.8992 40.5632 16.6208C40.5632 16.2512 40.5552 15.8832 40.5392 15.5168C42.208 14.312 43.656 12.8096 44.8 11.0992Z" fill="#FF0000"/>
</svg>
